<mxfile host="app.diagrams.net" modified="2022-05-31T12:10:24.064Z" agent="5.0 (Macintosh; Intel Mac OS X 10_15_7) AppleWebKit/537.36 (KHTML, like Gecko) Chrome/101.0.4951.64 Safari/537.36 Edg/101.0.1210.53" etag="NNDjRTFYhS1QJMld54Pt" version="18.1.2" type="github">
  <diagram id="w23tw08ASIh7nbf2GKmj" name="Page-1">
    <mxGraphModel dx="1186" dy="773" grid="1" gridSize="10" guides="1" tooltips="1" connect="1" arrows="1" fold="1" page="1" pageScale="1" pageWidth="827" pageHeight="1169" math="0" shadow="0">
      <root>
        <mxCell id="0" />
        <mxCell id="1" parent="0" />
        <mxCell id="M0uQYywCyfteG3hm3l-B-7" value="" style="rounded=0;whiteSpace=wrap;html=1;sketch=0;fontFamily=Comic Sans MS;fontSize=18;fillColor=#dae8fc;strokeColor=#6c8ebf;" vertex="1" parent="1">
          <mxGeometry x="180" y="185" width="580" height="100" as="geometry" />
        </mxCell>
        <mxCell id="M0uQYywCyfteG3hm3l-B-17" style="edgeStyle=orthogonalEdgeStyle;rounded=0;orthogonalLoop=1;jettySize=auto;html=1;fontFamily=Comic Sans MS;fontSize=14;sketch=1;" edge="1" parent="1" source="M0uQYywCyfteG3hm3l-B-1" target="M0uQYywCyfteG3hm3l-B-8">
          <mxGeometry relative="1" as="geometry" />
        </mxCell>
        <mxCell id="M0uQYywCyfteG3hm3l-B-1" value="&lt;font style=&quot;font-size: 14px;&quot; face=&quot;Comic Sans MS&quot;&gt;Products&lt;/font&gt;" style="rounded=1;whiteSpace=wrap;html=1;sketch=0;rotation=0;fillColor=#dae8fc;strokeColor=#6c8ebf;" vertex="1" parent="1">
          <mxGeometry x="415" y="80" width="110" height="40" as="geometry" />
        </mxCell>
        <mxCell id="M0uQYywCyfteG3hm3l-B-18" style="edgeStyle=orthogonalEdgeStyle;rounded=0;sketch=1;orthogonalLoop=1;jettySize=auto;html=1;entryX=0.5;entryY=0;entryDx=0;entryDy=0;fontFamily=Comic Sans MS;fontSize=14;" edge="1" parent="1" source="M0uQYywCyfteG3hm3l-B-3" target="M0uQYywCyfteG3hm3l-B-9">
          <mxGeometry relative="1" as="geometry" />
        </mxCell>
        <mxCell id="M0uQYywCyfteG3hm3l-B-19" value="" style="edgeStyle=orthogonalEdgeStyle;rounded=0;sketch=1;orthogonalLoop=1;jettySize=auto;html=1;fontFamily=Comic Sans MS;fontSize=14;" edge="1" parent="1" source="M0uQYywCyfteG3hm3l-B-3" target="M0uQYywCyfteG3hm3l-B-9">
          <mxGeometry relative="1" as="geometry" />
        </mxCell>
        <mxCell id="M0uQYywCyfteG3hm3l-B-3" value="&lt;font style=&quot;font-size: 14px;&quot;&gt;OP&lt;/font&gt;" style="shape=umlActor;verticalLabelPosition=bottom;verticalAlign=top;html=1;outlineConnect=0;sketch=0;fontFamily=Comic Sans MS;fontSize=18;fillColor=#dae8fc;strokeColor=#6c8ebf;" vertex="1" parent="1">
          <mxGeometry x="665" y="60" width="30" height="60" as="geometry" />
        </mxCell>
        <mxCell id="M0uQYywCyfteG3hm3l-B-8" value="&lt;font style=&quot;font-size: 14px;&quot;&gt;RESTful APIs&lt;/font&gt;" style="rounded=1;whiteSpace=wrap;html=1;sketch=1;fontFamily=Comic Sans MS;fontSize=18;" vertex="1" parent="1">
          <mxGeometry x="410" y="210" width="120" height="50" as="geometry" />
        </mxCell>
        <mxCell id="M0uQYywCyfteG3hm3l-B-9" value="&lt;font style=&quot;font-size: 14px;&quot;&gt;Web Portal&lt;/font&gt;" style="rounded=1;whiteSpace=wrap;html=1;sketch=1;fontFamily=Comic Sans MS;fontSize=18;" vertex="1" parent="1">
          <mxGeometry x="620" y="210" width="120" height="50" as="geometry" />
        </mxCell>
        <mxCell id="M0uQYywCyfteG3hm3l-B-21" value="&lt;font style=&quot;font-size: 14px;&quot;&gt;OpenAPIs&lt;/font&gt;" style="rounded=1;whiteSpace=wrap;html=1;sketch=1;fontFamily=Comic Sans MS;fontSize=18;" vertex="1" parent="1">
          <mxGeometry x="200" y="210" width="120" height="50" as="geometry" />
        </mxCell>
        <mxCell id="M0uQYywCyfteG3hm3l-B-23" style="edgeStyle=orthogonalEdgeStyle;rounded=0;sketch=1;orthogonalLoop=1;jettySize=auto;html=1;fontFamily=Comic Sans MS;fontSize=14;" edge="1" parent="1" source="M0uQYywCyfteG3hm3l-B-22" target="M0uQYywCyfteG3hm3l-B-21">
          <mxGeometry relative="1" as="geometry" />
        </mxCell>
        <mxCell id="M0uQYywCyfteG3hm3l-B-22" value="&lt;font style=&quot;font-size: 14px;&quot; face=&quot;Comic Sans MS&quot;&gt;ThirdParty&lt;/font&gt;" style="rounded=1;whiteSpace=wrap;html=1;sketch=0;rotation=0;fillColor=#dae8fc;strokeColor=#6c8ebf;" vertex="1" parent="1">
          <mxGeometry x="205" y="80" width="110" height="40" as="geometry" />
        </mxCell>
        <mxCell id="M0uQYywCyfteG3hm3l-B-25" value="Messaging Queue" style="rounded=0;whiteSpace=wrap;html=1;sketch=0;fontFamily=Comic Sans MS;fontSize=14;fillColor=#d5e8d4;strokeColor=#82b366;" vertex="1" parent="1">
          <mxGeometry x="180" y="310" width="580" height="60" as="geometry" />
        </mxCell>
        <mxCell id="M0uQYywCyfteG3hm3l-B-26" value="" style="rounded=0;whiteSpace=wrap;html=1;sketch=0;fontFamily=Comic Sans MS;fontSize=14;fillColor=#7EA6E0;strokeColor=#b85450;" vertex="1" parent="1">
          <mxGeometry x="180" y="398" width="580" height="112" as="geometry" />
        </mxCell>
        <mxCell id="M0uQYywCyfteG3hm3l-B-28" value="Message Management" style="rounded=1;whiteSpace=wrap;html=1;sketch=1;fontFamily=Comic Sans MS;fontSize=14;fillColor=default;" vertex="1" parent="1">
          <mxGeometry x="333" y="408" width="120" height="40" as="geometry" />
        </mxCell>
        <mxCell id="M0uQYywCyfteG3hm3l-B-30" value="Template Management" style="rounded=1;whiteSpace=wrap;html=1;sketch=1;fontFamily=Comic Sans MS;fontSize=14;fillColor=default;" vertex="1" parent="1">
          <mxGeometry x="333" y="458" width="120" height="40" as="geometry" />
        </mxCell>
        <mxCell id="M0uQYywCyfteG3hm3l-B-31" value="Statistics" style="rounded=1;whiteSpace=wrap;html=1;sketch=1;fontFamily=Comic Sans MS;fontSize=14;fillColor=default;" vertex="1" parent="1">
          <mxGeometry x="482" y="408" width="120" height="40" as="geometry" />
        </mxCell>
        <mxCell id="M0uQYywCyfteG3hm3l-B-32" value="Target Grouping" style="rounded=1;whiteSpace=wrap;html=1;sketch=1;fontFamily=Comic Sans MS;fontSize=14;fillColor=default;" vertex="1" parent="1">
          <mxGeometry x="482" y="458" width="120" height="40" as="geometry" />
        </mxCell>
        <mxCell id="M0uQYywCyfteG3hm3l-B-33" value="Censorship Management" style="rounded=1;whiteSpace=wrap;html=1;sketch=1;fontFamily=Comic Sans MS;fontSize=14;fillColor=default;" vertex="1" parent="1">
          <mxGeometry x="625" y="409" width="120" height="40" as="geometry" />
        </mxCell>
        <mxCell id="M0uQYywCyfteG3hm3l-B-34" value="Channel Management" style="rounded=1;whiteSpace=wrap;html=1;sketch=1;fontFamily=Comic Sans MS;fontSize=14;fillColor=default;" vertex="1" parent="1">
          <mxGeometry x="190" y="409" width="120" height="40" as="geometry" />
        </mxCell>
        <mxCell id="M0uQYywCyfteG3hm3l-B-35" value="Sender Management" style="rounded=1;whiteSpace=wrap;html=1;sketch=1;fontFamily=Comic Sans MS;fontSize=14;fillColor=default;" vertex="1" parent="1">
          <mxGeometry x="190" y="459" width="120" height="40" as="geometry" />
        </mxCell>
        <mxCell id="M0uQYywCyfteG3hm3l-B-36" value="&lt;font style=&quot;font-size: 18px;&quot;&gt;...&lt;/font&gt;" style="text;html=1;align=center;verticalAlign=middle;resizable=0;points=[];autosize=1;strokeColor=none;fillColor=none;fontSize=14;fontFamily=Comic Sans MS;" vertex="1" parent="1">
          <mxGeometry x="660" y="468" width="30" height="20" as="geometry" />
        </mxCell>
      </root>
    </mxGraphModel>
  </diagram>
</mxfile>
